<svg xmlns="http://www.w3.org/2000/svg" width="19.6" height="22" viewBox="0 0 19.6 22">
  <g id="boton_contrasena" transform="translate(-326.819 -273.008)">
    <path id="Path_1651" data-name="Path 1651" d="M344.774,280.315" fill="#fff" stroke="#283340" stroke-linecap="round" stroke-linejoin="round" stroke-width="1.107"/>
    <path id="Path_1657" data-name="Path 1657" d="M330.688,281.794V279.92a5.764,5.764,0,1,1,11.525,0v1.8" fill="none" stroke="#919493" stroke-linecap="round" stroke-width="2"/>
    <path id="Rectangle_48" data-name="Rectangle 48" d="M330.819,281.794h11.6a3,3,0,0,1,3,3.007V291a3,3,0,0,1-3,3.007h-11.6a3,3,0,0,1-3-3.007v-6.2A3,3,0,0,1,330.819,281.794Z" fill="#fff" stroke="#919493" stroke-linecap="round" stroke-linejoin="round" stroke-width="2"/>
    <path id="Path_1653" data-name="Path 1653" d="M337.552,287.39a2.026,2.026,0,0,0-.448-.286c-.1-.052-.2-.1-.3-.15l-.216-.105-.03-.015-.03.015c-.071.035-.14.069-.211.1-.1.05-.2.1-.309.152a2.078,2.078,0,0,0-.445.285,1.66,1.66,0,0,0-.4,1.836,2.865,2.865,0,0,0,1.136,1.234V292.1a.254.254,0,1,0,.507,0v-1.641a2.872,2.872,0,0,0,1.142-1.236A1.66,1.66,0,0,0,337.552,287.39Z" fill="none" stroke="#919493" stroke-linecap="round" stroke-linejoin="round" stroke-width="2"/>
    <path id="Path_1654" data-name="Path 1654" d="M333.037,284.833l.03.857h-.391l.033-.857-.733.46-.185-.359.752-.382-.748-.386.184-.346.73.451-.029-.852h.387l-.03.854.727-.454.191.347-.757.388.757.383-.194.355Z" fill="#919493"/>
    <path id="Path_1655" data-name="Path 1655" d="M336.919,284.833l.03.857h-.391l.033-.857-.733.46-.185-.359.752-.382-.748-.386.185-.346.73.451-.03-.852h.387l-.03.854.728-.454.19.347-.757.388.757.383-.193.355Z" fill="#919493"/>
    <path id="Path_1656" data-name="Path 1656" d="M340.8,284.833l.03.857h-.391l.033-.857-.733.46-.185-.359.751-.382-.748-.386.185-.346.73.451-.029-.852h.387l-.03.854.728-.454.191.347-.758.388.758.383-.194.355Z" fill="#919493"/>
  </g>
</svg>
