<svg xmlns="http://www.w3.org/2000/svg" width="297.548" height="76.92" viewBox="0 0 297.548 76.92">
  <g id="logo_uasd_virtual" transform="translate(1.548 0.207)">
    <g id="Group_465" data-name="Group 465" transform="translate(65.983 7.998)">
      <g id="Group_11" data-name="Group 11">
        <path id="Path_256" data-name="Path 256" d="M539.8,129.746c-.06-5.4-.071-6.4-.155-7.531-.085-1.208-.376-1.773-1.552-2.009a7.332,7.332,0,0,0-1.389-.091c-.391,0-.605-.064-.608-.313s.245-.322.779-.328c1.886-.021,4.128.061,5.2.049.854-.009,3.094-.141,4.375-.155.533-.006.784.063.786.311s-.21.322-.566.326a5.307,5.307,0,0,0-1.03.118c-.959.189-1.237.8-1.294,2.04-.059,1.137-.047,2.132.013,7.533l.056,4.975c.057,5.153,1.113,7.309,2.872,8.711a6.594,6.594,0,0,0,4.463,1.408,6.976,6.976,0,0,0,4.889-1.974c1.935-1.976,2.006-5.175,1.965-8.835l-.05-4.442c-.06-5.4-.071-6.4-.155-7.532-.085-1.208-.376-1.773-1.553-2.009a6.892,6.892,0,0,0-1.282-.093c-.391,0-.606-.063-.608-.313s.245-.322.744-.328c1.814-.02,4.057.062,4.093.062.427,0,2.667-.136,4.054-.152.5-.005.748.063.751.311s-.21.322-.637.326a5.391,5.391,0,0,0-1.031.118c-.959.189-1.236.8-1.294,2.04-.059,1.138-.048,2.133.012,7.533l.043,3.8c.044,3.944-.3,8.142-3.26,10.733a10.625,10.625,0,0,1-7.372,2.641c-1.886.021-5.3-.048-7.925-2.365-1.833-1.614-3.214-4.229-3.272-9.381Z" transform="translate(-536.098 -118.346)" fill="#fff"/>
        <path id="Path_257" data-name="Path 257" d="M608.489,135.775c-.178,0-.248.074-.317.288l-1.867,4.889a6.885,6.885,0,0,0-.509,2.174c.007.639.332,1.1,1.435,1.085l.534-.006c.427,0,.534.065.537.279,0,.284-.21.358-.6.362-1.139.013-2.67-.077-3.772-.065-.391,0-2.347.133-4.2.153-.463,0-.677-.064-.68-.348,0-.214.139-.287.424-.29a10.852,10.852,0,0,0,1.1-.083c1.635-.231,2.3-1.447,2.989-3.231l8.684-22.13c.416-1.035.625-1.428.981-1.432.32,0,.538.314.9,1.127.875,1.945,6.726,16.1,9.064,21.472,1.388,3.183,2.425,3.669,3.174,3.838a7.8,7.8,0,0,0,1.5.126c.285,0,.462.03.466.279,0,.284-.316.359-1.633.373-1.281.014-3.878.043-6.725,0-.64-.028-1.067-.024-1.07-.272,0-.214.139-.286.495-.326a.579.579,0,0,0,.311-.821l-2.928-7.288a.343.343,0,0,0-.359-.244Zm7.238-1.857c.178,0,.212-.11.176-.216L612.6,125c-.037-.141-.074-.319-.181-.317s-.176.18-.21.322l-3.175,8.742c-.034.143,0,.249.145.247Z" transform="translate(-578.306 -117.17)" fill="#fff"/>
        <path id="Path_258" data-name="Path 258" d="M684.326,143.688c-.573-.243-.681-.419-.69-1.2-.021-1.954.1-4.087.126-4.656.03-.533.132-.926.417-.929.32,0,.36.316.363.6a7.5,7.5,0,0,0,.34,1.809,4.9,4.9,0,0,0,5.128,3.531c3.2-.036,4.744-2.22,4.723-4.1-.019-1.741-.571-3.37-3.551-5.646l-1.65-1.261c-3.948-3.013-5.328-5.485-5.36-8.363-.044-3.909,3.2-6.753,8.143-6.807a17.194,17.194,0,0,1,4.739.552c.321.066.5.171.5.42.006.462-.126,1.494-.1,4.266.009.782-.095,1.067-.379,1.071-.248,0-.357-.21-.362-.636a4.307,4.307,0,0,0-.952-2.335,4.51,4.51,0,0,0-3.9-1.7c-2.633.029-4.217,1.575-4.193,3.707.018,1.635.851,2.87,3.828,5.075l1,.735c4.341,3.186,5.9,5.621,5.935,9a7.156,7.156,0,0,1-3.276,6.22,10.291,10.291,0,0,1-5.64,1.52A12.345,12.345,0,0,1,684.326,143.688Z" transform="translate(-635.016 -116.66)" fill="#fff"/>
        <path id="Path_259" data-name="Path 259" d="M731.3,127.962c-.06-5.4-.071-6.4-.155-7.532-.085-1.208-.376-1.773-1.553-2.009a7.322,7.322,0,0,0-1.389-.091c-.391,0-.606-.064-.609-.313s.246-.322.78-.328c1.885-.021,4.128.061,5.125.05,1.1-.013,3.343-.144,5.478-.168,4.447-.049,10.389-.115,14.312,3.893a12.687,12.687,0,0,1,3.552,8.987,14.1,14.1,0,0,1-3.768,9.957c-1.618,1.688-5.29,4.252-11.872,4.325-1.281.015-2.741-.076-4.094-.167s-2.6-.185-3.489-.175c-.391,0-1.174.014-2.028.058-.818.009-1.742.091-2.453.1-.463.006-.713-.1-.716-.347,0-.178.139-.287.566-.291a5.828,5.828,0,0,0,1.28-.157c.709-.15.879-.933,1.009-1.965.162-1.494.13-4.3.093-7.571Zm4.491,3.86c.042,3.766.108,6.5.151,7.177a7.763,7.763,0,0,0,.422,2.7c.471.67,1.867,1.4,4.677,1.37,3.629-.04,6.041-.778,8.154-2.649,2.255-1.979,2.931-5.221,2.891-8.881a12.079,12.079,0,0,0-3.515-8.846c-3.308-3.09-7.369-3.472-10.144-3.441a9.5,9.5,0,0,0-2.31.275.642.642,0,0,0-.418.715c-.023,1.209.012,4.3.043,7.107Z" transform="translate(-664.492 -117.263)" fill="#fff"/>
      </g>
    </g>
    <text id="Virtual" transform="translate(163 35)" fill="#fff" font-size="37" font-family="Gilroy-SemiBold, Gilroy" font-weight="600"><tspan x="0" y="0">Virtual</tspan></text>
    <text id="Conéctate_y_Estudia" data-name="Conéctate y Estudia" transform="translate(71 56)" fill="#fff" font-size="21" font-family="Gilroy-SemiBold, Gilroy" font-weight="600"><tspan x="0" y="0">Conéctate y Estudia</tspan></text>
    <text id="Desde_cualquier_lugar_y_en_cualquier_momento" data-name="Desde cualquier lugar y en cualquier momento" transform="translate(71 71)" fill="#fff" font-size="11" font-family="SFProDisplay-Regular, SF Pro Display"><tspan x="0" y="0">Desde cualquier lugar y en cualquier momento</tspan></text>
    <g id="Group_785" data-name="Group 785" transform="translate(0 1.456)">
      <path id="Path_2505" data-name="Path 2505" d="M1189.7,774.545l-.679-.375c-13.675-7.508-22.91-16.477-27.476-26.65-5.356-11.947-1.824-27.646,8.042-35.734,1.748-1.582,4.62-3.346,9-5.535,2.087-1.039,4.158-2,6.236-2.961,1.423-.655,2.84-1.313,4.261-2l.617-.293.607.293c1.466.7,2.917,1.375,4.369,2.04,2.053.948,4.1,1.9,6.158,2.917,4.415,2.188,7.291,3.957,9.07,5.562,9.836,8.074,13.36,23.765,8.008,35.707-4.542,10.144-13.811,19.111-27.536,26.65Z" transform="translate(-1159.045 -701)" fill="#fff" stroke="#293340" stroke-width="3"/>
      <path id="Path_2506" data-name="Path 2506" d="M4104.557,3168.3s-4.189,17.962,2.938,17.962c5.414,0,9.295-8.587,8.1-14.5s-6.734-12.207-17.146-12.029a18.448,18.448,0,0,0-18.431,19.146c.182,10.9,12.287,21.721,27.826,13.978" transform="translate(-4067.619 -3141.661)" fill="none" stroke="#293340" stroke-linecap="round" stroke-linejoin="round" stroke-width="3"/>
      <path id="Path_1678" data-name="Path 1678" d="M471.692,1130.261a22.124,22.124,0,0,1-6.962.244,12.137,12.137,0,0,1-5.321-3.155c-.553-.635-3.845-4.03-3.47-5.134a8.582,8.582,0,0,1,1.977-2.547l-7.533-7.833-.229-.976s.936-1.549,1.436-1.783a1.7,1.7,0,0,1,2.414.276c1.082,1.146,3.912,3.906,3.912,3.906s1.373-3.163,3.038-2.5a1.137,1.137,0,0,1,.624,0s1.29-1.846,2.1-2.038,2.247.87,2.289.913c.146-.255.978-1.592,2.31-1.4s3.142,2.165,3.559,2.526a58.712,58.712,0,0,1,4.433,4.861c.666,1,2.726,4.776,2.414,7.748S472.509,1130,471.692,1130.261Z" transform="translate(-413.643 -1063.7)" fill="#fff" stroke="#293340" stroke-width="3"/>
      <g id="Group_108" data-name="Group 108" transform="translate(36.437 44.822)">
        <path id="Path_1673" data-name="Path 1673" d="M919.231,116.943l-8.116-8.106c-.895-.894-1.937-1.043-3.1.117s-1.013,2.2-.117,3.094l12.024,12.009" transform="translate(-907.187 -108.125)" fill="rgba(0,0,0,0)" stroke="#293340" stroke-linecap="round" stroke-miterlimit="10" stroke-width="3"/>
        <path id="Path_1674" data-name="Path 1674" d="M939.017,112.511,936.1,109.6c-1.234-1.233-2.314-1.735-3.512-.746a2.807,2.807,0,0,0-1.1,1.662" transform="translate(-919.826 -108.23)" fill="rgba(0,0,0,0)" stroke="#293340" stroke-linecap="round" stroke-miterlimit="10" stroke-width="3"/>
        <path id="Path_1676" data-name="Path 1676" d="M921.139,131.172a6.969,6.969,0,0,0-1.12.919c-.806.805-.775,2.046.243,3.307a36.305,36.305,0,0,0,2.547,2.915A8.315,8.315,0,0,0,928,141.247a29.105,29.105,0,0,0,6.778.015" transform="translate(-913.567 -119.48)" fill="rgba(0,0,0,0)" stroke="#293340" stroke-linecap="round" stroke-miterlimit="10" stroke-width="3"/>
        <path id="Path_1677" data-name="Path 1677" d="M930.968,116.011l-2.705-2.7c-1.234-1.232-2.677-2.006-3.948-.736a5.191,5.191,0,0,0-1.324,1.884" transform="translate(-915.408 -110.102)" fill="rgba(0,0,0,0)" stroke="#293340" stroke-linecap="round" stroke-miterlimit="10" stroke-width="3"/>
      </g>
      <path id="Path_2507" data-name="Path 2507" d="M4107.149,3182.849c-.667,2.258-3.866,7.544-7.709,7.544s-5.809-4.224-5.394-9.187,3.813-9.033,7.6-9.033a9.023,9.023,0,0,1,1.566.141,5.423,5.423,0,0,1,2.475,1,4.948,4.948,0,0,1,1.539,2.117,5.209,5.209,0,0,1,.331,1.719l-.185,2.558Z" transform="translate(-4071.731 -3146.052)" fill="#07f" stroke="#293340" stroke-linejoin="round" stroke-width="3"/>
    </g>
  </g>
</svg>
